<?xml version="1.0" encoding="utf-8"?>
<!-- Generator: Adobe Illustrator 25.3.1, SVG Export Plug-In . SVG Version: 6.00 Build 0)  -->
<svg version="1.1" id="Layer_1" xmlns="http://www.w3.org/2000/svg" xmlns:xlink="http://www.w3.org/1999/xlink" x="0px" y="0px"
	 viewBox="0 0 91 91" style="enable-background:new 0 0 91 91;" xml:space="preserve">
<style type="text/css">
	.st0{fill:#27BCD2;}
</style>
<g>
	<path class="st0" d="M63.1,68.3c0.3,0,0.5,0,0.6,0.1c0.2,0.1,0.3,0.3,0.3,0.6c0,0.3,0.1,0.5,0.1,0.8c0,0.3,0,0.6,0,0.9V73
		c0,0.2-0.1,0.4-0.2,0.6c-0.2,0.2-0.4,0.2-0.6,0.2h-35c-0.6,0-1.1-0.2-1.6-0.6c-0.4-0.4-0.6-0.9-0.6-1.6v-6.8c0-0.6,0.2-1.1,0.6-1.5
		s0.9-0.7,1.6-0.7h0.1v-4c0-0.2,0.1-0.4,0.2-0.6c0.2-0.2,0.4-0.2,0.6-0.2H30v-1.1c-0.8-0.2-1.5-0.6-2-1.3c-0.6-0.7-0.8-1.4-0.8-2.3
		c0-1,0.4-1.9,1.1-2.6s1.6-1.1,2.6-1.1c1,0,1.9,0.4,2.6,1.1s1.1,1.6,1.1,2.6c0,0.9-0.3,1.7-0.8,2.3c-0.6,0.7-1.2,1.1-2,1.3v1.1h0.8
		c0.2,0,0.4,0.1,0.6,0.2s0.2,0.4,0.2,0.6v4.1c0.1,0,0.2,0.1,0.3,0.1c0.1,0,0.1,0,0.2,0.1c0.7-0.9,1.4-1.7,2.3-2.4s1.8-1.2,2.8-1.6
		v-0.2c0-0.2,0.1-0.4,0.2-0.5c0.1-0.2,0.3-0.3,0.5-0.4l4-1.1v-3.3c-0.8-0.3-1.5-0.6-2.2-1c-0.7-0.4-1.4-0.9-2-1.4
		c-0.4-0.1-0.8-0.3-1-0.6c-0.3-0.3-0.5-0.7-0.6-1.1c-0.9-1.1-1.6-2.3-2-3.7c-0.5-1.3-0.7-2.7-0.7-4.2H35c-0.1,0-0.2,0-0.3,0
		c-0.1,0-0.2,0-0.3,0c-1.2,0-2.1-0.6-2.8-1.7c-0.6-1.1-0.9-2.4-0.9-3.7c0-1.2,0.2-2.2,0.7-3s1.1-1.4,1.8-1.7c0-0.4,0.1-0.8,0.1-1.1
		c0-0.3,0.1-0.5,0.1-0.6c0-0.2,0.1-0.7,0.2-1.5c0.1-0.8,0.4-1.8,0.8-2.8c0.1-0.2,0.2-0.4,0.4-0.5c0.2-0.1,0.4-0.1,0.7,0
		c0.2,0.1,0.3,0.2,0.4,0.4s0.1,0.4,0,0.6c-0.4,1.1-0.6,2.4-0.8,3.9c0,0.1-0.1,0.9-0.2,2.2c-0.1,1.3,0.1,2.6,0.6,3.9
		c0.1,0.2,0.2,0.4,0.4,0.4c0.2,0.1,0.4,0,0.6-0.1c0.3-0.2,0.6-0.7,1.1-1.5c0.5-0.8,0.9-2.2,1.2-4.1c0.1-0.4,0.3-0.8,0.6-1.1
		c0.3-0.3,0.7-0.5,1.1-0.6c0.9-0.1,2.3-0.4,4.2-0.9s3.5-1.1,4.7-2c0.6-0.4,1.3-0.6,2.1-0.5c0.8,0.1,1.4,0.5,1.8,1
		c0.3,0.4,0.7,0.8,1.1,1.2c0.4,0.4,0.9,0.7,1.5,1c0.3,0.1,0.5,0.3,0.6,0.6c0.1,0.3,0.2,0.5,0.3,0.8c0.3,2.1,0.8,3.6,1.3,4.4
		c0.5,0.8,0.9,1.3,1.1,1.5c0.1,0.1,0.3,0.1,0.6,0.1c0.2-0.1,0.4-0.2,0.4-0.4c0.2-0.6,0.4-1.3,0.4-1.9s0.1-1.2,0.1-1.8v-0.1
		c0-0.8,0-1.3-0.1-1.7c-0.1-0.3-0.1-0.6-0.1-0.7c-0.1-1.7-0.3-3.1-0.8-4.1c-0.5-1.3-1.3-2.3-2.3-3c-1-0.7-2.3-1.2-3.7-1.3
		c-0.2,0-0.4-0.1-0.6-0.2c-0.2-0.1-0.4-0.3-0.5-0.4c-0.3-0.3-1-0.6-2.3-1.2c-1.3-0.5-3.7-0.5-7.1,0.1c-1.2,0.2-2.2,0.6-3.2,1.2
		c-0.9,0.6-1.8,1.3-2.5,2.2c-0.1,0.2-0.3,0.3-0.6,0.3c-0.2,0-0.4,0-0.6-0.1c-0.2-0.1-0.3-0.3-0.3-0.6s0-0.4,0.2-0.6
		c0.8-1.1,1.8-2,2.9-2.7s2.4-1.1,3.8-1.4c1.6-0.3,3.1-0.4,4.4-0.4s2.5,0.1,3.5,0.4c0.9,0.2,1.6,0.4,2,0.8c0.5,0.3,0.8,0.6,1,0.9
		c0,0,0.1,0,0.1,0c2.2,0.2,3.9,0.9,5,2s1.9,2.3,2.4,3.4c0.4,1.1,0.7,2.1,0.7,3c0.1,0.9,0.1,1.5,0.1,1.7c0,0.1,0.1,0.3,0.1,0.6
		s0.1,0.7,0.1,1.1c0.8,0.3,1.4,0.8,1.8,1.7c0.5,0.8,0.7,1.8,0.7,3c0,1.3-0.3,2.6-0.9,3.7c-0.6,1.1-1.5,1.7-2.8,1.7
		c-0.1,0-0.2,0-0.3,0c-0.1,0-0.2,0-0.3,0h-0.1c0,1.4-0.2,2.8-0.7,4.2c-0.5,1.3-1.2,2.6-2,3.7c-0.1,0.4-0.3,0.8-0.6,1.1
		c-0.3,0.3-0.6,0.5-1,0.6c-0.6,0.6-1.3,1-2,1.4c-0.7,0.4-1.5,0.8-2.2,1v3.3l4,1.1c0.2,0.1,0.4,0.2,0.5,0.4s0.2,0.3,0.2,0.5v0.2
		c0.5,0.2,1,0.4,1.5,0.7c0.5,0.3,0.9,0.6,1.3,0.9c0.2,0.1,0.3,0.3,0.3,0.6c0,0.2,0,0.4-0.2,0.6c-0.1,0.2-0.3,0.3-0.6,0.3
		c-0.2,0-0.4,0-0.6-0.2c-0.2-0.2-0.5-0.4-0.7-0.5s-0.5-0.3-0.7-0.5l1.4,11.5h4.1v-1.4c0-0.3,0-0.5,0-0.8c0-0.3,0-0.5-0.1-0.8
		c0-0.2,0.1-0.4,0.2-0.6C62.7,68.4,62.9,68.3,63.1,68.3z M32.8,72.1c0.4,0,0.7-0.1,0.9-0.4s0.4-0.5,0.4-0.9v-5.4
		c0-0.3-0.1-0.6-0.4-0.9s-0.5-0.4-0.9-0.4h-4.5c-0.1,0-0.3,0.1-0.4,0.2c-0.1,0.1-0.2,0.2-0.2,0.4v6.8c0,0.1,0.1,0.3,0.2,0.4
		c0.1,0.1,0.2,0.2,0.4,0.2H32.8z M29.4,54.4c0.4,0.4,0.9,0.6,1.4,0.6c0.6,0,1-0.2,1.4-0.6s0.6-0.9,0.6-1.4c0-0.6-0.2-1.1-0.6-1.5
		c-0.4-0.4-0.9-0.6-1.4-0.6c-0.6,0-1,0.2-1.4,0.6c-0.4,0.4-0.6,0.9-0.6,1.5C28.8,53.5,29,54,29.4,54.4z M30,62.5h1.7v-3.2H30V62.5z
		 M32.3,35.9c0,0.9,0.2,1.8,0.5,2.6s0.9,1.2,1.5,1.2c0.1,0,0.2,0,0.4-0.1s0.2-0.1,0.4-0.1v-2c-0.3-0.1-0.5-0.3-0.7-0.5
		s-0.4-0.5-0.5-0.8c-0.2-0.5-0.3-1-0.4-1.5c-0.1-0.5-0.2-1.1-0.2-1.6c-0.3,0.3-0.6,0.7-0.7,1.2C32.3,34.8,32.3,35.3,32.3,35.9z
		 M38.5,60.7c-0.7,0.4-1.3,0.8-1.8,1.3s-1.1,1.1-1.6,1.8c0.2,0.3,0.3,0.5,0.4,0.8s0.1,0.6,0.1,0.9v5.4c0,0.2,0,0.4-0.1,0.7
		c-0.1,0.2-0.1,0.4-0.2,0.6h1.8L38.5,60.7z M40.3,30.6c-0.3,2.1-0.8,3.7-1.4,4.7c-0.6,1-1.1,1.6-1.5,1.9c-0.1,0.1-0.2,0.2-0.4,0.2
		c-0.1,0.1-0.2,0.1-0.4,0.1v2.3l1.1,0.2c0-0.5,0.2-0.9,0.6-1.3s0.8-0.5,1.3-0.5h16.1c0.5,0,1,0.2,1.3,0.5s0.6,0.8,0.6,1.3l1.1-0.2
		v-2.3c-0.1,0-0.2-0.1-0.4-0.1s-0.2-0.1-0.4-0.2c-1-0.8-1.7-1.9-2.1-3.3c-0.4-1.5-0.7-2.7-0.9-3.7c0,0,0-0.1-0.1-0.1
		c0-0.1-0.1-0.1-0.1-0.1c-0.6-0.4-1.2-0.8-1.7-1.2c-0.5-0.4-0.9-0.9-1.3-1.3c-0.2-0.3-0.5-0.4-0.8-0.5c-0.3-0.1-0.6,0-0.9,0.2
		c-1.4,1-3.2,1.7-5.2,2.2s-3.5,0.8-4.5,0.9c-0.1,0-0.1,0-0.2,0.1C40.4,30.4,40.4,30.5,40.3,30.6z M37.8,41.7l-1.1-0.2
		c0,0.8,0.1,1.5,0.3,2.3c0.2,0.7,0.4,1.5,0.8,2.2V41.7z M56.7,72.1c0-0.1-0.1-0.9-0.3-2.2c-0.1-1.3-0.3-2.7-0.5-4.2
		c-0.2-1.5-0.4-3-0.5-4.3s-0.2-2.1-0.3-2.3L52,58.3c-0.1,1.3-0.6,2.3-1.3,3.2s-1.7,1.3-3,1.3c-1.3,0-2.3-0.4-3-1.3
		c-0.7-0.8-1.1-1.9-1.3-3.2l-3.1,0.8c0,0.4-0.1,1-0.2,1.8c-0.1,0.7-0.6,4.5-1.4,11.3H56.7z M39.7,49.1h16.1c0.1,0,0.1,0,0.2-0.1
		c0.1-0.1,0.1-0.1,0.1-0.2v-8.6c0-0.1,0-0.2-0.1-0.2C56,40,55.9,40,55.8,40H39.7c-0.1,0-0.1,0-0.2,0.1c-0.1,0-0.1,0.1-0.1,0.2
		c0,0.4,0,1.8,0,4.1s0,3.8,0,4.4v0.1c0,0.1,0,0.1,0.1,0.2C39.6,49.1,39.6,49.1,39.7,49.1z M42.2,50.8c1.7,1,3.5,1.4,5.5,1.4
		c2,0,3.8-0.5,5.5-1.4H42.2z M47.8,53.9c-0.8,0-1.7-0.1-2.5-0.2V58h5v-4.4C49.4,53.8,48.6,53.9,47.8,53.9z M45.6,59.7
		c0.2,0.5,0.5,0.9,0.9,1.1c0.4,0.2,0.8,0.3,1.3,0.3c0.5,0,0.9-0.1,1.3-0.3c0.4-0.2,0.7-0.6,0.9-1.1H45.6z M57.7,41.7V46
		c0.3-0.7,0.6-1.4,0.8-2.2c0.2-0.7,0.3-1.5,0.3-2.3L57.7,41.7z M60.8,62.9c0.2-0.1,0.4-0.1,0.6-0.1c0.2,0,0.4,0.2,0.6,0.4
		c0.2,0.3,0.4,0.7,0.6,1c0.2,0.3,0.3,0.7,0.5,1.1c0.1,0.2,0.1,0.4,0,0.6c-0.1,0.2-0.2,0.3-0.5,0.4c-0.2,0.1-0.4,0.1-0.6,0
		c-0.2-0.1-0.4-0.2-0.5-0.5c-0.1-0.3-0.2-0.7-0.4-1s-0.3-0.6-0.5-0.9c-0.1-0.2-0.2-0.4-0.1-0.6C60.5,63.2,60.7,63,60.8,62.9z
		 M61.7,36.2c-0.1,0.3-0.3,0.5-0.5,0.7s-0.5,0.4-0.7,0.5v2c0.1,0,0.2,0.1,0.4,0.1s0.2,0.1,0.4,0.1c0.7,0,1.2-0.4,1.5-1.2
		s0.5-1.6,0.5-2.6c0-0.6-0.1-1.1-0.2-1.6c-0.1-0.5-0.4-0.9-0.7-1.2c0,0.5-0.1,1-0.2,1.6C62,35.2,61.9,35.7,61.7,36.2z"/>
</g>
</svg>
