<?xml version="1.0" encoding="utf-8"?>
<!-- Generator: Adobe Illustrator 25.3.1, SVG Export Plug-In . SVG Version: 6.00 Build 0)  -->
<svg version="1.1" id="Layer_1" xmlns="http://www.w3.org/2000/svg" xmlns:xlink="http://www.w3.org/1999/xlink" x="0px" y="0px"
	 viewBox="0 0 91 91" style="enable-background:new 0 0 91 91;" xml:space="preserve">
<style type="text/css">
	.st0{fill:#27BCD2;}
</style>
<g>
	<path class="st0" d="M52.7,18.1c2.6,0,5,0.9,7.1,2.8c2.1,1.9,3.2,4.5,3.2,7.8c0,2.2-0.4,4.3-1.2,6.4c-0.8,2.1-1.5,3.9-2.3,5.7
		c-0.1,0.1-0.1,0.3-0.2,0.5c-0.1,0.2-0.1,0.3-0.2,0.5c-0.1,0.2-0.3,0.4-0.5,0.5s-0.4,0.2-0.7,0.2h-2.7c0.1,0.1,0.1,0.2,0.1,0.4
		c0,0.1,0,0.3,0,0.4c0,0.6-0.2,1.2-0.6,1.6s-1,0.7-1.6,0.8v1.6c0.6,0,1.2,0.3,1.6,0.7s0.6,1,0.6,1.7c0,0.6-0.2,1.2-0.6,1.6
		c-0.4,0.4-1,0.7-1.6,0.8v1.6c0.6,0,1.2,0.3,1.6,0.7c0.4,0.5,0.6,1,0.6,1.7c0,0.6-0.2,1.2-0.6,1.6s-1,0.7-1.6,0.8v1.6
		c0.6,0,1.2,0.3,1.6,0.7c0.4,0.5,0.6,1,0.6,1.7s-0.2,1.2-0.6,1.6c-0.4,0.4-1,0.7-1.6,0.8v0.2c0,2.1-0.8,4-2.3,5.5
		c-1.5,1.5-3.3,2.3-5.5,2.3s-4-0.8-5.5-2.3c-1.5-1.5-2.3-3.3-2.3-5.5V65c-0.6-0.1-1.2-0.3-1.6-0.8c-0.4-0.4-0.6-1-0.6-1.6
		s0.2-1.2,0.6-1.7c0.4-0.5,1-0.7,1.6-0.7v-1.6c-0.6-0.1-1.2-0.3-1.6-0.8s-0.6-1-0.6-1.6c0-0.6,0.2-1.2,0.6-1.7
		c0.4-0.5,1-0.7,1.6-0.7v-1.6c-0.6-0.1-1.2-0.3-1.6-0.8c-0.4-0.4-0.6-1-0.6-1.6c0-0.6,0.2-1.2,0.6-1.7s1-0.7,1.6-0.7v-1.6
		c-0.6-0.1-1.2-0.3-1.6-0.8s-0.6-1-0.6-1.6c0-0.1,0-0.3,0-0.4c0-0.1,0.1-0.3,0.1-0.4H33c-0.2,0-0.5-0.1-0.7-0.2s-0.3-0.3-0.5-0.5
		c-0.1-0.2-0.2-0.5-0.4-0.8c-0.1-0.3-0.3-0.6-0.4-0.9c-0.1-0.2-0.1-0.4,0-0.6c0.1-0.2,0.2-0.4,0.4-0.4c0.2-0.1,0.4-0.1,0.6,0
		c0.2,0.1,0.4,0.2,0.4,0.4c0.1,0.2,0.2,0.5,0.3,0.7c0.1,0.2,0.2,0.5,0.3,0.7c10.1,0,16.3,0,18.6,0c2.3,0,4.3,0,6,0
		c0-0.1,0.1-0.3,0.1-0.4c0.1-0.1,0.1-0.2,0.2-0.4c0.7-1.7,1.5-3.5,2.2-5.4c0.7-1.9,1.1-3.9,1.1-6c0-2.9-0.9-5.1-2.7-6.7
		c-1.8-1.6-3.8-2.4-6-2.4c-1.2,0-2.2,0.2-3,0.5c-0.8,0.4-1.5,0.7-2,1.1l-0.1,0.1c-0.1,0.1-0.7,0.5-1.8,1.3s-2.6,1.3-4.4,1.4h-0.1
		h-0.1c-0.2,0-0.3-0.1-0.5-0.2c-0.2-0.1-0.2-0.3-0.2-0.5c0-0.2,0-0.4,0.2-0.6s0.3-0.3,0.5-0.3c0.5,0,1-0.1,1.4-0.3
		c0.5-0.1,0.9-0.3,1.3-0.5c-0.1,0-0.2-0.1-0.3-0.1c-0.1-0.1-0.2-0.1-0.3-0.2c-0.5-0.4-1.2-0.8-2-1.2c-0.9-0.4-1.9-0.6-3.1-0.6
		c-2.2,0-4.3,0.8-6,2.4c-1.8,1.6-2.7,3.8-2.7,6.7c0,0.4,0,0.8,0.1,1.2c0,0.4,0.1,0.8,0.2,1.2c0,0.2,0,0.4-0.2,0.6
		c-0.1,0.2-0.3,0.3-0.5,0.3c-0.2,0-0.4,0-0.6-0.1c-0.2-0.1-0.3-0.3-0.3-0.6c-0.1-0.4-0.1-0.9-0.2-1.3S28,29.2,28,28.8
		c0-3.4,1.1-6,3.2-7.8s4.5-2.8,7.1-2.8c1.4,0,2.7,0.2,3.7,0.7c1,0.4,1.8,0.9,2.4,1.4c0.3,0.2,0.7,0.4,1.1,0.4s0.8-0.1,1.1-0.4
		c0.6-0.5,1.4-0.9,2.4-1.4C50.1,18.3,51.3,18.1,52.7,18.1z M31.2,36.3c0.1,0.2,0.1,0.4,0,0.6c-0.1,0.2-0.2,0.3-0.5,0.5
		c-0.2,0.1-0.4,0.1-0.6,0c-0.2-0.1-0.3-0.2-0.5-0.5c-0.1-0.4-0.2-0.7-0.3-1c-0.1-0.3-0.2-0.6-0.3-1c-0.1-0.2-0.1-0.4,0.1-0.6
		c0.1-0.2,0.3-0.3,0.5-0.4s0.4-0.1,0.6,0.1c0.2,0.1,0.3,0.3,0.4,0.5c0.1,0.3,0.2,0.6,0.3,0.9C31,35.6,31.1,35.9,31.2,36.3z
		 M53.7,42.7c-0.2-0.2-0.3-0.2-0.6-0.2H37.9c-0.2,0-0.4,0.1-0.6,0.2c-0.2,0.2-0.2,0.3-0.2,0.6s0.1,0.4,0.2,0.6s0.3,0.2,0.6,0.2
		c0.5,0,1.6,0,3.1,0c1.5,0,3.1,0,4.8,0c1.7,0,3.2,0,4.7,0c1.4,0,2.3,0,2.7,0c0.2,0,0.4-0.1,0.6-0.2s0.2-0.3,0.2-0.6
		S53.8,42.9,53.7,42.7z M53.7,49.2c-0.2-0.2-0.3-0.2-0.6-0.2H37.9c-0.2,0-0.4,0.1-0.6,0.2c-0.2,0.2-0.2,0.3-0.2,0.6
		c0,0.2,0.1,0.4,0.2,0.6c0.2,0.2,0.3,0.2,0.6,0.2c0.4,0,1.3,0,2.7,0c1.4,0,3,0,4.6,0s3.2,0,4.8,0c1.5,0,2.5,0,3.1,0
		c0.2,0,0.4-0.1,0.6-0.2c0.2-0.2,0.2-0.3,0.2-0.6C53.9,49.5,53.8,49.3,53.7,49.2z M53.7,55.6c-0.2-0.2-0.3-0.2-0.6-0.2H37.9
		c-0.2,0-0.4,0.1-0.6,0.2c-0.2,0.2-0.2,0.3-0.2,0.6c0,0.2,0.1,0.4,0.2,0.6c0.2,0.2,0.3,0.2,0.6,0.2c0.5,0,1.6,0,3.1,0
		c1.5,0,3.1,0,4.8,0c1.7,0,3.2,0,4.7,0c1.4,0,2.3,0,2.7,0c0.2,0,0.4-0.1,0.6-0.2c0.2-0.2,0.2-0.3,0.2-0.6
		C53.9,55.9,53.8,55.7,53.7,55.6z M53.9,62.6c0-0.2-0.1-0.4-0.2-0.6c-0.2-0.2-0.3-0.2-0.6-0.2H37.9c-0.2,0-0.4,0.1-0.6,0.2
		c-0.2,0.2-0.2,0.3-0.2,0.6s0.1,0.4,0.2,0.6s0.3,0.2,0.6,0.2c1.1,0,2.4,0,3.9,0c1.4,0,2.7,0,3.7,0c0.2,0,0.4,0.1,0.6,0.2
		c0.2,0.2,0.2,0.3,0.2,0.6c0,0.2-0.1,0.4-0.2,0.6S45.7,65,45.5,65h-6.2v0.2c0,1.7,0.6,3.1,1.8,4.3c1.2,1.2,2.7,1.8,4.4,1.8
		s3.2-0.6,4.4-1.8c1.2-1.2,1.8-2.7,1.8-4.3V65h-2.7c-0.2,0-0.4-0.1-0.6-0.2c-0.2-0.2-0.2-0.3-0.2-0.6c0-0.2,0.1-0.4,0.2-0.6
		c0.2-0.2,0.3-0.2,0.6-0.2c0.8,0,1.5,0,2.1,0s1.3,0,2.1,0c0.2,0,0.4-0.1,0.6-0.2S53.9,62.8,53.9,62.6z M39.3,45.7v1.6h12.3v-1.6
		H39.3z M39.3,52.1v1.6h12.3v-1.6H39.3z M39.3,58.6v1.6h12.3v-1.6H39.3z"/>
</g>
</svg>
