<?xml version="1.0" encoding="utf-8"?>
<!-- Generator: Adobe Illustrator 25.3.1, SVG Export Plug-In . SVG Version: 6.00 Build 0)  -->
<svg version="1.1" id="Layer_1" xmlns="http://www.w3.org/2000/svg" xmlns:xlink="http://www.w3.org/1999/xlink" x="0px" y="0px"
	 viewBox="0 0 91 91" style="enable-background:new 0 0 91 91;" xml:space="preserve">
<style type="text/css">
	.st0{fill:#28BCD2;}
</style>
<path class="st0" d="M63.3,40.9c0.2,0,0.4,0.1,0.6,0.3c0.2,0.2,0.3,0.4,0.3,0.6v7.4c0,3-1.1,5.6-3.2,7.7c-2.1,2.1-4.7,3.2-7.7,3.2
	c-1,0-1.9-0.1-2.8-0.4c-0.9-0.3-1.7-0.6-2.5-1c-0.4,1-0.6,1.8-0.8,2.4c-0.1,0.6-0.2,1.5-0.3,2.7c-0.1,1.2-0.3,2.4-0.5,3.7
	c-0.2,1.3-0.5,2.4-1,3.6c-0.6,1.4-1.4,2.4-2.5,3c-1,0.7-2.3,1-3.7,1c-0.6,0-1.1-0.1-1.6-0.3s-0.8-0.5-1.2-0.8
	c-0.7-0.8-1.1-1.9-1-3.4c0-1.4,0.2-3,0.4-4.6c0.2-1.3,0.3-2.6,0.3-3.9c0.1-1.3-0.1-2.2-0.6-2.8c-0.2-0.2-0.4-0.3-0.6-0.4
	c-0.3-0.1-0.6-0.1-0.9-0.1s-0.6,0-0.9,0.1c-0.3,0.1-0.5,0.2-0.6,0.4c-0.5,0.5-0.7,1.5-0.6,2.8c0.1,1.3,0.2,2.6,0.3,3.9
	c0.2,1.6,0.4,3.1,0.4,4.6c0,1.4-0.3,2.5-1,3.4c-0.3,0.4-0.7,0.7-1.2,0.8c-0.5,0.2-1,0.3-1.6,0.3c-1.6,0-2.9-0.4-4-1.2
	c-1.1-0.8-1.9-2-2.5-3.6c-0.1-0.2-0.1-0.5,0-0.7c0.1-0.2,0.3-0.4,0.5-0.4c0.2-0.1,0.5-0.1,0.7,0c0.2,0.1,0.4,0.3,0.4,0.5
	c0.5,1.3,1.1,2.2,1.9,2.8c0.8,0.6,1.8,0.9,3,0.9c0.3,0,0.6,0,0.8-0.1c0.2-0.1,0.4-0.2,0.6-0.4c0.5-0.5,0.7-1.4,0.6-2.7
	s-0.2-2.6-0.3-3.9c-0.2-1.6-0.4-3.2-0.4-4.6c0-1.4,0.3-2.6,1.1-3.4c0.3-0.4,0.7-0.7,1.2-0.8c0.5-0.2,1-0.3,1.6-0.3s1.1,0.1,1.6,0.3
	c0.5,0.2,0.9,0.5,1.2,0.8c0.8,0.8,1.1,2,1.1,3.4c0,1.4-0.2,3-0.4,4.6c-0.2,1.3-0.3,2.6-0.3,3.9c-0.1,1.3,0.1,2.2,0.6,2.7
	c0.2,0.2,0.3,0.3,0.6,0.4c0.2,0.1,0.5,0.1,0.8,0.1c2.3,0,3.8-0.9,4.5-2.8c0.7-1.9,1.2-4.2,1.4-6.9c0.1-1.3,0.2-2.3,0.4-3
	c0.1-0.7,0.5-1.7,1-3c-1.2-1-2.2-2.2-3-3.6c-0.7-1.5-1.1-3.1-1.1-4.8v-9.3c-1.4-0.2-2.6-0.9-3.6-2c-1-1.1-1.5-2.4-1.6-3.8
	c-0.2,0.1-0.3,0.2-0.5,0.3c-0.2,0.1-0.3,0.2-0.4,0.3l-0.1,0.1c-0.1,0.1-0.7,0.5-2,1.4c-1.2,0.8-2.8,1.4-4.7,1.6h-0.1h-0.1
	c-0.2,0-0.4-0.1-0.6-0.2c-0.2-0.2-0.3-0.3-0.3-0.6c0-0.2,0-0.4,0.2-0.6c0.2-0.2,0.3-0.3,0.6-0.3c0.5,0,1.1-0.1,1.6-0.3
	c0.5-0.2,1-0.3,1.4-0.5c-0.1,0-0.2-0.1-0.3-0.1c-0.1-0.1-0.2-0.1-0.3-0.2c-0.5-0.4-1.3-0.8-2.2-1.2c-0.9-0.4-2-0.6-3.4-0.6
	c-2.4,0-4.6,0.9-6.5,2.6c-1.9,1.7-2.9,4.1-2.9,7.2c0,2.2,0.4,4.4,1.2,6.5c0.8,2.1,1.6,4,2.4,5.8c0.4,0.9,0.8,1.7,1.2,2.6
	c0.3,0.8,0.6,1.6,0.8,2.3c0.1,0.2,0.1,0.5-0.1,0.7c-0.1,0.2-0.3,0.4-0.5,0.4c0,0-0.1,0-0.1,0c0,0-0.1,0-0.1,0
	c-0.2,0-0.4-0.1-0.5-0.2c-0.2-0.1-0.3-0.3-0.3-0.5c-0.2-0.7-0.5-1.4-0.8-2.2c-0.3-0.8-0.7-1.6-1.1-2.5c-0.8-1.9-1.6-3.9-2.5-6.1
	c-0.8-2.2-1.2-4.5-1.2-6.9c0-3.6,1.1-6.5,3.4-8.5c2.3-2,4.8-3,7.7-3c1.5,0,2.9,0.2,4,0.7c1.1,0.5,2,1,2.6,1.5
	c0.3,0.3,0.8,0.4,1.2,0.4s0.9-0.1,1.2-0.4c0.3-0.3,0.7-0.5,1.1-0.8c0.4-0.2,0.8-0.4,1.2-0.6c0.4-1.2,1.1-2.3,2.2-3.1
	c1.1-0.8,2.3-1.2,3.6-1.2c1.7,0,3.1,0.6,4.3,1.8c1.2,1.2,1.8,2.6,1.8,4.3c0,0,0,0.1,0,0.1c0,0,0,0.1,0,0.2c0.8,0.8,1.7,1.8,2.4,3.2
	c0.8,1.4,1.1,3.2,1.1,5.4c0,2.4-0.4,4.7-1.2,6.9c-0.8,2.2-1.7,4.3-2.5,6.1c-0.1,0.2-0.2,0.4-0.3,0.6c-0.1,0.2-0.2,0.4-0.3,0.7
	c0.7,0.4,1.4,0.7,2.2,0.9c0.8,0.2,1.6,0.3,2.5,0.3c2.5,0,4.7-0.9,6.5-2.7c1.8-1.8,2.7-3.9,2.7-6.5v-7.4c0-0.2,0.1-0.4,0.2-0.6
	C62.8,41,63,40.9,63.3,40.9z M22.4,67.2c-0.2,0-0.4,0-0.6-0.1c-0.2-0.1-0.3-0.3-0.3-0.6c0-0.4-0.1-0.8-0.1-1.3
	c0-0.4-0.1-0.8-0.2-1.3c0-0.2,0.1-0.4,0.2-0.6c0.2-0.2,0.3-0.3,0.6-0.3c0.2,0,0.4,0,0.6,0.2c0.2,0.2,0.3,0.4,0.3,0.6
	c0,0.4,0.1,0.8,0.1,1.2c0.1,0.4,0.1,0.8,0.1,1.2c0,0.3,0,0.5-0.2,0.7C22.8,67.1,22.6,67.2,22.4,67.2z M38.9,33.9
	c0,1.2,0.4,2.2,1.3,3.1c0.8,0.8,1.9,1.3,3.1,1.3c1.2,0,2.2-0.4,3.1-1.3c0.8-0.8,1.3-1.9,1.3-3.1c0-1.2-0.4-2.2-1.3-3.1
	c-0.8-0.8-1.9-1.3-3.1-1.3c-1.2,0-2.2,0.4-3.1,1.3C39.3,31.7,38.9,32.7,38.9,33.9z M45.1,35.7c-0.5,0.5-1.1,0.8-1.8,0.8
	c-0.7,0-1.4-0.3-1.9-0.8c-0.5-0.5-0.8-1.1-0.8-1.9c0-0.7,0.3-1.4,0.8-1.9c0.5-0.5,1.1-0.8,1.9-0.8c0.7,0,1.3,0.3,1.8,0.8
	c0.5,0.5,0.8,1.1,0.8,1.9C45.9,34.6,45.6,35.2,45.1,35.7z M42.6,34.5c0.2,0.2,0.4,0.3,0.6,0.3s0.4-0.1,0.6-0.3
	c0.2-0.2,0.3-0.4,0.3-0.6c0-0.2-0.1-0.4-0.3-0.6c-0.2-0.2-0.4-0.3-0.6-0.3s-0.4,0.1-0.6,0.3c-0.2,0.2-0.3,0.4-0.3,0.6
	C42.4,34.1,42.5,34.3,42.6,34.5z M44.1,49.2c0,1.4,0.3,2.6,0.8,3.8c0.5,1.2,1.3,2.2,2.2,3c0.1-0.2,0.2-0.3,0.2-0.5
	c0.1-0.2,0.2-0.3,0.2-0.5c0.8-1.8,1.6-3.8,2.4-5.8c0.8-2.1,1.2-4.2,1.2-6.5c0-1.5-0.2-2.9-0.7-3.9c-0.5-1.1-1-1.9-1.6-2.6
	c-0.4,1-1,1.8-1.9,2.5c-0.8,0.7-1.8,1.1-2.9,1.2V49.2z M73.5,16.6c0.5,0.5,0.8,1.1,0.8,1.9v1.2c0,0.6-0.2,1.1-0.5,1.5
	c-0.3,0.4-0.7,0.7-1.2,0.9v3.1c0,2.4-0.8,4.5-2.4,6.3c-1.6,1.8-3.6,2.8-6,3V38c0,0.2-0.1,0.4-0.2,0.6c-0.2,0.2-0.4,0.3-0.6,0.3
	c-0.2,0-0.4-0.1-0.6-0.3c-0.2-0.2-0.3-0.4-0.3-0.6v-3.6c-2.4-0.2-4.3-1.2-6-3c-1.6-1.8-2.4-3.9-2.4-6.3V22c-0.5-0.2-0.9-0.5-1.2-0.9
	c-0.3-0.4-0.5-1-0.5-1.5v-1.2c0-0.7,0.3-1.4,0.8-1.9c0.5-0.5,1.1-0.8,1.9-0.8c0.7,0,1.4,0.3,1.9,0.8c0.5,0.5,0.8,1.1,0.8,1.9v1.2
	c0,0.6-0.2,1.1-0.5,1.5c-0.3,0.4-0.7,0.7-1.2,0.9v3.1c0,2.1,0.7,3.9,2.2,5.4c1.5,1.5,3.3,2.2,5.4,2.2c2,0,3.8-0.7,5.3-2.2
	c1.5-1.5,2.2-3.3,2.2-5.4V22c-0.5-0.2-0.9-0.5-1.2-0.9c-0.3-0.4-0.5-1-0.5-1.5v-1.2c0-0.7,0.3-1.4,0.8-1.9c0.5-0.5,1.1-0.8,1.9-0.8
	C72.4,15.8,73,16.1,73.5,16.6z M54,19.6c0,0.2,0.1,0.4,0.3,0.6c0.2,0.2,0.4,0.3,0.6,0.3s0.4-0.1,0.6-0.3c0.2-0.2,0.3-0.4,0.3-0.6
	v-1.2c0-0.2-0.1-0.4-0.3-0.6c-0.2-0.2-0.4-0.3-0.6-0.3s-0.4,0.1-0.6,0.3C54.1,18,54,18.2,54,18.4V19.6z M72.6,18.4
	c0-0.2-0.1-0.4-0.3-0.6c-0.2-0.2-0.4-0.3-0.6-0.3s-0.4,0.1-0.6,0.3c-0.2,0.2-0.3,0.4-0.3,0.6v1.2c0,0.2,0.1,0.4,0.3,0.6
	c0.2,0.2,0.4,0.3,0.6,0.3s0.4-0.1,0.6-0.3c0.2-0.2,0.3-0.4,0.3-0.6V18.4z"/>
</svg>
